<svg width="421" height="502" viewBox="0 0 421 502" fill="none" xmlns="http://www.w3.org/2000/svg">
<path d="M251.626 222.815H224.994V471.456H251.626V222.815Z" fill="#263238" stroke="#263238" stroke-miterlimit="10" stroke-linecap="round" stroke-linejoin="round"/>
<path d="M40.4387 312.853V330.345H146.589V312.853H40.4387Z" fill="white" stroke="#263238" stroke-miterlimit="10" stroke-linecap="round" stroke-linejoin="round"/>
<path d="M51.3614 252.502H35.077V322.475H51.3614V252.502Z" fill="white" stroke="#263238" stroke-miterlimit="10" stroke-linecap="round" stroke-linejoin="round"/>
<path d="M58.1363 322.754C58.1363 331.598 51.4521 338.777 43.2201 338.777C42.7286 338.777 42.2458 338.747 41.763 338.707C34.2074 337.91 28.304 331.07 28.304 322.754C28.304 313.909 34.9882 306.731 43.2201 306.731C50.1728 306.731 56.0203 311.855 57.6726 318.766C57.9794 320.041 58.1363 321.377 58.1363 322.754Z" fill="white" stroke="#263238" stroke-miterlimit="10" stroke-linecap="round" stroke-linejoin="round"/>
<path d="M59.2239 263.277C59.2239 272.122 52.5414 279.3 44.3077 279.3C43.8162 279.3 43.3334 279.27 42.8506 279.231C35.295 278.433 29.3916 271.594 29.3916 263.277C29.3916 254.432 36.0741 247.254 44.3077 247.254C51.2603 247.254 57.1079 252.378 58.7602 259.289C59.067 260.564 59.2239 261.901 59.2239 263.277Z" fill="white" stroke="#263238" stroke-miterlimit="10" stroke-linecap="round" stroke-linejoin="round"/>
<path d="M85.9983 219.773L64.3036 232.325L68.7982 241.289L90.4928 228.737L85.9983 219.773Z" fill="#263238" stroke="#263238" stroke-miterlimit="10" stroke-linecap="round" stroke-linejoin="round"/>
<path d="M94.0444 229.778L83.3462 235.968L76.5208 222.353L87.219 216.163C90.7188 214.137 95.0849 215.545 96.9691 219.305C98.8549 223.064 97.546 227.754 94.0444 229.778Z" fill="white" stroke="#263238" stroke-miterlimit="10" stroke-linecap="round" stroke-linejoin="round"/>
<path d="M47.2045 172.054L46.4445 219.542L36.9681 219.385L37.7281 171.898L47.2045 172.054Z" fill="#263238" stroke="#263238" stroke-miterlimit="10" stroke-linecap="round" stroke-linejoin="round"/>
<path d="M49.7683 169.199L49.5818 182.25L35.1868 182.012L35.3733 168.961C35.4343 164.69 38.7058 161.283 42.6815 161.348C46.6572 161.414 49.8293 164.928 49.7683 169.199Z" fill="white" stroke="#263238" stroke-miterlimit="10" stroke-linecap="round" stroke-linejoin="round"/>
<path d="M82.6176 189.279L61.8278 231.195L53.4564 226.423L74.2445 184.508L82.6176 189.279Z" fill="#263238" stroke="#263238" stroke-miterlimit="10" stroke-linecap="round" stroke-linejoin="round"/>
<path d="M86.1105 187.987L80.4163 199.518L67.6981 192.271L73.3923 180.739C75.2555 176.967 79.6128 175.53 83.1249 177.532C86.6369 179.533 87.9738 184.214 86.1105 187.987Z" fill="white" stroke="#263238" stroke-miterlimit="10" stroke-linecap="round" stroke-linejoin="round"/>
<path d="M13.5953 189.095L34.2004 231.115L25.8238 235.876L5.21869 193.857L13.5953 189.095Z" fill="#263238" stroke="#263238" stroke-miterlimit="10" stroke-linecap="round" stroke-linejoin="round"/>
<path d="M32.9228 219.556C32.0617 214.135 27.2739 210.492 22.228 211.419C17.1822 212.344 13.7904 217.487 14.6515 222.907C15.5125 228.327 20.3003 231.971 25.3462 231.044C30.392 230.117 33.7838 224.974 32.9228 219.556Z" fill="white" stroke="#263238" stroke-miterlimit="10" stroke-linecap="round" stroke-linejoin="round"/>
<path d="M42 220.87C47.1182 220.87 51.2673 216.413 51.2673 210.915C51.2673 205.417 47.1182 200.96 42 200.96C36.8819 200.96 32.7328 205.417 32.7328 210.915C32.7328 216.413 36.8819 220.87 42 220.87Z" fill="white" stroke="#263238" stroke-miterlimit="10" stroke-linecap="round" stroke-linejoin="round"/>
<path d="M72.2593 216.665C73.0367 211.232 69.5665 206.148 64.5085 205.313C59.4504 204.478 54.7183 208.206 53.941 213.639C53.1636 219.073 56.6338 224.156 61.6919 224.991C66.7499 225.828 71.482 222.1 72.2593 216.665Z" fill="white" stroke="#263238" stroke-miterlimit="10" stroke-linecap="round" stroke-linejoin="round"/>
<path d="M14.5626 185.265L20.2446 196.804L7.51934 204.036L1.83733 192.497C-0.0223886 188.723 1.31968 184.044 4.83346 182.046C8.34724 180.05 12.7029 181.49 14.5626 185.265Z" fill="white" stroke="#263238" stroke-miterlimit="10" stroke-linecap="round" stroke-linejoin="round"/>
<path d="M70.478 238.786C70.478 254.301 58.7533 266.896 44.3077 266.896C43.445 266.896 42.5979 266.844 41.7508 266.774C28.4957 265.376 18.1374 253.374 18.1374 238.786C18.1374 223.268 29.8622 210.673 44.3077 210.673C56.5048 210.673 66.7638 219.664 69.6624 231.787C70.2009 234.028 70.478 236.372 70.478 238.786Z" fill="white" stroke="#263238" stroke-miterlimit="10" stroke-linecap="round" stroke-linejoin="round"/>
<path d="M70.478 238.786C70.478 254.301 58.7532 266.896 44.3077 266.896C43.4449 266.896 42.5979 266.844 41.7508 266.774C41.214 264.535 40.9368 262.191 40.9368 259.778C40.9368 244.262 52.6616 231.665 67.1072 231.665C67.9699 231.665 68.817 231.718 69.6641 231.787C70.2009 234.028 70.478 236.372 70.478 238.786Z" fill="white" stroke="#263238" stroke-miterlimit="10" stroke-linecap="round" stroke-linejoin="round"/>
<path d="M202.112 323.255C206.551 302.872 194.768 282.484 175.793 277.715C156.819 272.946 137.838 285.604 133.399 305.986C128.96 326.369 140.743 346.758 159.718 351.526C178.692 356.295 197.673 343.637 202.112 323.255Z" fill="white" stroke="#263238" stroke-miterlimit="10" stroke-linecap="round" stroke-linejoin="round"/>
<path d="M174.347 331.533C183.062 327.627 187.18 316.872 183.545 307.51C179.909 298.149 169.897 293.725 161.182 297.631C152.467 301.536 148.349 312.291 151.985 321.653C155.62 331.015 165.632 335.438 174.347 331.533Z" fill="#263238" stroke="#263238" stroke-miterlimit="10" stroke-linecap="round" stroke-linejoin="round"/>
<path d="M161.695 474.955H318.208L320.471 463.579C322.351 454.128 316.784 444.843 308.007 442.724C285.809 437.36 237.776 435.428 237.776 435.428C226.209 435.823 194.001 437.365 171.799 442.746C163.062 444.864 157.561 454.169 159.433 463.579L161.695 474.955Z" fill="white" stroke="#263238" stroke-miterlimit="10" stroke-linecap="round" stroke-linejoin="round"/>
<path d="M277.631 438.217C257.58 436.227 237.776 435.427 237.776 435.427C230.491 435.677 215.022 436.38 199.02 438.212C203.69 455.345 219.514 467.957 238.325 467.957C257.137 467.958 272.959 455.347 277.631 438.217Z" fill="white" stroke="#263238" stroke-miterlimit="10" stroke-linecap="round" stroke-linejoin="round"/>
<path d="M401.795 394.727L411.533 380.707L326.454 312.518L316.715 326.539L401.795 394.727Z" fill="white" stroke="#263238" stroke-miterlimit="10" stroke-linecap="round" stroke-linejoin="round"/>
<path d="M359.405 436.034L372.457 446.495L411.41 390.412L398.358 379.951L359.405 436.034Z" fill="white" stroke="#263238" stroke-miterlimit="10" stroke-linecap="round" stroke-linejoin="round"/>
<path d="M393.127 375.384C398.051 368.295 407.403 366.835 414.004 372.124C414.398 372.44 414.769 372.774 415.133 373.116C420.746 378.61 421.669 387.885 417.038 394.55C412.115 401.639 402.762 403.099 396.163 397.81C390.591 393.344 388.757 385.479 391.279 378.879C391.743 377.658 392.36 376.486 393.127 375.384Z" fill="white" stroke="#263238" stroke-miterlimit="10" stroke-linecap="round" stroke-linejoin="round"/>
<path d="M359.087 420.182C363.682 412.842 372.956 410.89 379.79 415.825C380.198 416.119 380.583 416.433 380.963 416.755C386.819 421.945 388.165 431.161 383.846 438.062C379.251 445.401 369.977 447.354 363.143 442.419C357.374 438.251 355.183 430.494 357.4 423.769C357.81 422.528 358.373 421.324 359.087 420.182Z" fill="white" stroke="#263238" stroke-miterlimit="10" stroke-linecap="round" stroke-linejoin="round"/>
<path d="M314.336 440.213L338.859 442.802L339.786 432.669L315.263 430.081L314.336 440.213Z" fill="#263238" stroke="#263238" stroke-miterlimit="10" stroke-linecap="round" stroke-linejoin="round"/>
<path d="M312.791 427.111L324.885 428.388L323.477 443.778L311.384 442.503C307.428 442.085 304.536 438.302 304.925 434.052C305.312 429.8 308.835 426.693 312.791 427.111Z" fill="white" stroke="#263238" stroke-miterlimit="10" stroke-linecap="round" stroke-linejoin="round"/>
<path d="M337.028 433.761C345.088 420.886 361.36 417.459 373.348 426.117C374.064 426.633 374.739 427.186 375.406 427.751C385.679 436.858 388.041 453.023 380.464 465.131C372.405 478.009 356.133 481.433 344.145 472.776C334.022 465.465 330.179 451.855 334.071 440.058C334.787 437.877 335.775 435.765 337.028 433.761Z" fill="white" stroke="#263238" stroke-miterlimit="10" stroke-linecap="round" stroke-linejoin="round"/>
<path d="M308.855 462.92L341.281 436.886L346.487 444.342L314.063 470.376L308.855 462.92Z" fill="#263238" stroke="#263238" stroke-miterlimit="10" stroke-linecap="round" stroke-linejoin="round"/>
<path d="M305.495 462.529L314.395 455.356L322.304 466.682L313.405 473.854C310.492 476.2 306.361 475.568 304.177 472.441C301.993 469.312 302.583 464.875 305.495 462.529Z" fill="white" stroke="#263238" stroke-miterlimit="10" stroke-linecap="round" stroke-linejoin="round"/>
<path d="M350.714 444.903C351.816 439.534 348.657 434.222 343.66 433.039C338.663 431.855 333.717 435.248 332.615 440.616C331.514 445.984 334.672 451.297 339.669 452.48C344.666 453.666 349.611 450.271 350.714 444.903Z" fill="white" stroke="#263238" stroke-miterlimit="10" stroke-linecap="round" stroke-linejoin="round"/>
<path d="M367.912 489.093L372.715 453.364L379.846 454.456L375.044 490.185L367.912 489.093Z" fill="#263238" stroke="#263238" stroke-miterlimit="10" stroke-linecap="round" stroke-linejoin="round"/>
<path d="M365.724 490.984L367.028 481.162L377.86 482.821L376.557 492.643C376.13 495.856 373.36 498.089 370.368 497.632C367.377 497.174 365.297 494.197 365.724 490.984Z" fill="white" stroke="#263238" stroke-miterlimit="10" stroke-linecap="round" stroke-linejoin="round"/>
<path d="M382.633 452.121C380.346 448.275 375.588 447.148 372.008 449.606C368.428 452.063 367.378 457.174 369.667 461.02C371.955 464.866 376.712 465.993 380.292 463.534C383.872 461.076 384.919 455.967 382.633 452.121Z" fill="white" stroke="#263238" stroke-miterlimit="10" stroke-linecap="round" stroke-linejoin="round"/>
<path d="M335.822 484.335L357.426 447.562L364.773 452.523L343.169 489.297L335.822 484.335Z" fill="#263238" stroke="#263238" stroke-miterlimit="10" stroke-linecap="round" stroke-linejoin="round"/>
<path d="M332.553 485.262L338.473 475.144L349.633 482.678L343.713 492.796C341.776 496.106 337.706 497.102 334.625 495.022C331.543 492.944 330.616 488.572 332.553 485.262Z" fill="white" stroke="#263238" stroke-miterlimit="10" stroke-linecap="round" stroke-linejoin="round"/>
<path d="M368.905 451.422C368.145 445.985 363.427 442.239 358.366 443.055C353.304 443.871 349.816 448.94 350.576 454.377C351.336 459.814 356.054 463.56 361.116 462.744C366.177 461.928 369.665 456.859 368.905 451.422Z" fill="white" stroke="#263238" stroke-miterlimit="10" stroke-linecap="round" stroke-linejoin="round"/>
<path d="M328.913 347.111C345.298 335.78 350.029 312.327 339.481 294.726C328.933 277.126 307.099 272.043 290.715 283.374C274.33 294.705 269.599 318.159 280.147 335.759C290.695 353.36 312.529 358.442 328.913 347.111Z" fill="white" stroke="#263238" stroke-miterlimit="10" stroke-linecap="round" stroke-linejoin="round"/>
<path d="M325.37 322.867C329.306 313.646 325.538 302.744 316.954 298.516C308.371 294.288 298.221 298.336 294.286 307.556C290.35 316.777 294.117 327.68 302.701 331.907C311.285 336.135 321.434 332.088 325.37 322.867Z" fill="#263238" stroke="#263238" stroke-miterlimit="10" stroke-linecap="round" stroke-linejoin="round"/>
<path d="M238.308 240.188C269.599 240.188 294.966 212.939 294.966 179.326C294.966 145.713 269.599 118.464 238.308 118.464C207.017 118.464 181.65 145.713 181.65 179.326C181.65 212.939 207.017 240.188 238.308 240.188Z" fill="white" stroke="#263238" stroke-miterlimit="10" stroke-linecap="round" stroke-linejoin="round"/>
<path d="M319.313 219.857C333.48 200.814 341.97 176.684 341.97 150.412C341.97 88.9134 295.559 39.0583 238.308 39.0583C181.058 39.0583 134.646 88.9134 134.646 150.412C134.646 176.684 143.136 200.814 157.303 219.857H319.313Z" fill="white" stroke="#263238" stroke-miterlimit="10" stroke-linecap="round" stroke-linejoin="round"/>
<path d="M301.718 188.288H172.27C164.398 188.288 158.017 181.434 158.017 172.979V123.693C158.017 115.238 164.398 108.383 172.27 108.383H301.718C309.589 108.383 315.97 115.238 315.97 123.693V172.979C315.968 181.434 309.587 188.288 301.718 188.288Z" fill="white" stroke="#263238" stroke-miterlimit="10" stroke-linecap="round" stroke-linejoin="round"/>
<path d="M175.104 145.099C178.6 134.621 187.926 127.128 198.883 127.128C209.344 127.128 218.318 133.96 222.153 143.696" stroke="#263238" stroke-width="5" stroke-miterlimit="10" stroke-linecap="round" stroke-linejoin="round"/>
<path d="M253.161 145.099C256.658 134.621 265.984 127.128 276.94 127.128C287.402 127.128 296.376 133.96 300.21 143.696" stroke="#263238" stroke-width="5" stroke-miterlimit="10" stroke-linecap="round" stroke-linejoin="round"/>
<path d="M224.628 163.627C225.53 171.195 231.537 177.049 238.829 177.049C246.12 177.049 252.126 171.197 253.031 163.627H224.628Z" fill="white" stroke="#263238" stroke-miterlimit="10" stroke-linecap="round" stroke-linejoin="round"/>
<path d="M372.426 169.953C366.434 169.953 361.576 164.735 361.576 158.298V131.811C361.576 125.374 366.434 120.156 372.426 120.156C378.418 120.156 383.276 125.374 383.276 131.811V158.298C383.276 164.735 378.418 169.953 372.426 169.953Z" fill="#263238" stroke="#263238" stroke-miterlimit="10" stroke-linecap="round" stroke-linejoin="round"/>
<path d="M101.194 169.953C95.2017 169.953 90.3441 164.735 90.3441 158.298V131.811C90.3441 125.374 95.2017 120.156 101.194 120.156C107.186 120.156 112.044 125.374 112.044 131.811V158.298C112.044 164.735 107.186 169.953 101.194 169.953Z" fill="#263238" stroke="#263238" stroke-miterlimit="10" stroke-linecap="round" stroke-linejoin="round"/>
<path d="M135.948 50.4023C126.69 65.1241 121.285 82.8696 121.285 101.972V121.208" stroke="#263238" stroke-width="14" stroke-miterlimit="10" stroke-linecap="round" stroke-linejoin="round"/>
<path d="M341.755 50.4736C326.33 25.9 300.179 9.73657 270.511 9.73657H207.146C177.507 9.73657 151.377 25.8681 135.947 50.4025" stroke="#263238" stroke-width="7" stroke-miterlimit="10" stroke-linecap="round" stroke-linejoin="round"/>
<path d="M356.375 121.208V101.973C356.375 82.8997 350.986 65.1804 341.755 50.4736" stroke="#263238" stroke-width="14" stroke-miterlimit="10" stroke-linecap="round" stroke-linejoin="round"/>
<path d="M129.925 187.302H115.395C106.982 187.302 100.16 179.976 100.16 170.936V116.857C100.16 107.82 106.98 100.492 115.395 100.492H129.925C138.338 100.492 145.16 107.818 145.16 116.857V170.936C145.16 179.976 138.34 187.302 129.925 187.302Z" fill="white" stroke="#263238" stroke-miterlimit="10" stroke-linecap="round" stroke-linejoin="round"/>
<path d="M124.956 100.493H120.365V187.304H124.956V100.493Z" fill="white" stroke="#263238" stroke-miterlimit="10" stroke-linecap="round" stroke-linejoin="round"/>
<path d="M359.507 187.302H344.978C336.565 187.302 329.743 179.976 329.743 170.936V116.857C329.743 107.82 336.563 100.492 344.978 100.492H359.507C367.92 100.492 374.742 107.818 374.742 116.857V170.936C374.742 179.976 367.922 187.302 359.507 187.302Z" fill="white" stroke="#263238" stroke-miterlimit="10" stroke-linecap="round" stroke-linejoin="round"/>
<path d="M354.538 100.493H349.947V187.304H354.538V100.493Z" fill="white" stroke="#263238" stroke-miterlimit="10" stroke-linecap="round" stroke-linejoin="round"/>
<path d="M238.67 92.6018C254.803 92.6018 269.834 83.817 278.598 69.2675L288.435 52.9375C273.576 44.1022 256.494 39.0564 238.31 39.0564C219.568 39.0564 202.006 44.4261 186.835 53.7706L201.595 73.5082C210.62 85.5788 224.256 92.6018 238.67 92.6018Z" fill="white" stroke="#263238" stroke-miterlimit="10" stroke-linecap="round" stroke-linejoin="round"/>
<path d="M241.119 196.379C241.119 195.384 240.37 194.579 239.444 194.579C238.519 194.579 237.769 195.384 237.769 196.379C237.769 197.373 238.519 198.178 239.444 198.178C240.37 198.178 241.119 197.373 241.119 196.379Z" fill="#263238"/>
<path d="M241.119 202.675C241.119 201.681 240.37 200.876 239.444 200.876C238.519 200.876 237.769 201.681 237.769 202.675C237.769 203.669 238.519 204.474 239.444 204.474C240.37 204.474 241.119 203.669 241.119 202.675Z" fill="#263238"/>
<path d="M234.491 201.698C235.375 201.408 235.873 200.402 235.603 199.453C235.333 198.502 234.397 197.968 233.513 198.258C232.628 198.549 232.131 199.554 232.399 200.503C232.67 201.453 233.606 201.988 234.491 201.698Z" fill="#263238"/>
<path d="M244.957 201.698C245.843 201.408 246.341 200.402 246.071 199.453C245.801 198.502 244.865 197.968 243.98 198.258C243.096 198.549 242.597 199.554 242.866 200.503C243.138 201.453 244.074 201.988 244.957 201.698Z" fill="#263238"/>
<path d="M308.007 266.627C285.809 261.263 237.776 259.33 237.776 259.33C226.209 259.725 194.001 261.268 171.799 266.651C163.062 268.768 157.561 278.074 159.433 287.484L179.977 390.766C182.032 401.099 190.53 408.482 200.366 408.482H237.776H242.125H279.536C289.371 408.482 297.87 401.098 299.925 390.766L320.469 287.484C322.351 278.031 316.784 268.748 308.007 266.627Z" fill="white" stroke="#263238" stroke-miterlimit="10" stroke-linecap="round" stroke-linejoin="round"/>
<path d="M297.847 264.651C273.777 260.781 237.776 259.33 237.776 259.33C228.371 259.65 205.328 260.731 185.108 264.015L208.399 408.482H237.776H242.125H271.684L297.847 264.651Z" fill="white" stroke="#263238" stroke-miterlimit="10" stroke-linecap="round" stroke-linejoin="round"/>
<path d="M258.559 341.589H219.993C212.122 341.589 205.743 334.735 205.743 326.281V306.042C205.743 297.587 212.124 290.734 219.993 290.734H258.559C266.43 290.734 272.81 297.589 272.81 306.042V326.281C272.81 334.735 266.429 341.589 258.559 341.589Z" fill="white" stroke="#263238" stroke-miterlimit="10" stroke-linecap="round" stroke-linejoin="round"/>
<path d="M228.012 311.687H217.156V323.349H228.012V311.687Z" fill="white" stroke="#263238" stroke-miterlimit="10" stroke-linecap="round" stroke-linejoin="round"/>
<path d="M244.705 311.687H233.848V323.349H244.705V311.687Z" fill="white" stroke="#263238" stroke-miterlimit="10" stroke-linecap="round" stroke-linejoin="round"/>
<path d="M261.395 311.687H250.538V323.349H261.395V311.687Z" fill="white" stroke="#263238" stroke-miterlimit="10" stroke-linecap="round" stroke-linejoin="round"/>
<path d="M218.151 500.777H59.1317V412.75C59.1317 408.847 62.0781 405.682 65.7114 405.682H211.571C215.204 405.682 218.151 408.847 218.151 412.75V500.777Z" fill="white" stroke="#263238" stroke-miterlimit="10" stroke-linecap="round" stroke-linejoin="round"/>
<path d="M218.151 437.313C198.171 442.762 177.672 456.61 139.46 476.123C102.603 494.945 72.4491 494.629 59.1317 493.163V500.778H218.151V437.313Z" fill="white" stroke="#263238" stroke-miterlimit="10" stroke-linecap="round" stroke-linejoin="round"/>
<path d="M218.151 495.494H59.1317V500.777H218.151V495.494Z" fill="white" stroke="#263238" stroke-miterlimit="10" stroke-linecap="round" stroke-linejoin="round"/>
<path d="M146.838 453.23C146.838 458.093 143.167 462.035 138.641 462.035C134.114 462.035 130.443 458.093 130.443 453.23C130.443 448.367 134.114 444.424 138.641 444.424C143.167 444.424 146.838 448.367 146.838 453.23Z" fill="white" stroke="#263238" stroke-miterlimit="10" stroke-linecap="round" stroke-linejoin="round"/>
<path d="M172.219 0H62.9941C55.726 0 49.8345 6.32873 49.8345 14.1361V57.958C49.8345 65.7653 55.726 72.094 62.9941 72.094H171.561L185.378 91.8846V57.958V14.1361C185.378 6.32873 179.487 0 172.219 0Z" fill="#BBDEFB"/>
<path d="M73.6086 48.2478H69.6857V21.4316H73.6086V32.9243H78.0658V21.4316H82.0597V48.2478H78.0658V36.7552H73.6086V48.2478Z" fill="#0D47A1"/>
<path d="M84.9113 21.4316H88.8342V48.2478H84.9113V21.4316Z" fill="#0D47A1"/>
<path d="M96.072 21.4316H108.197V25.2625H104.095V48.2478H100.174V25.2625H96.072V21.4316Z" fill="#0D47A1"/>
<path d="M113.831 48.2478H109.908V21.4316H113.831V32.9243H118.289V21.4316H122.283V48.2478H118.289V36.7552H113.831V48.2478Z" fill="#0D47A1"/>
<path d="M129.056 32.732H134.441V36.5629H129.056V44.4169H135.832V48.2478H125.134V21.4316H135.832V25.2625H129.056V32.732Z" fill="#0D47A1"/>
<path d="M146.457 48.2478C146.243 47.558 146.101 47.1367 146.101 44.9527V40.7387C146.101 38.2479 145.316 37.3291 143.533 37.3291H142.178V48.2478H138.255V21.4316H144.176C148.241 21.4316 149.988 23.463 149.988 27.5992V29.7055C149.988 32.4634 149.168 34.2644 147.421 35.1451C149.381 36.0271 150.024 38.0571 150.024 40.8532V44.9909C150.024 46.2942 150.059 47.2512 150.451 48.2478H146.457ZM142.178 25.2625V33.4982H143.711C145.173 33.4982 146.064 32.8098 146.064 30.6639V28.0205C146.064 26.105 145.457 25.2625 144.066 25.2625H142.178Z" fill="#0D47A1"/>
<path d="M156.513 32.732H161.898V36.5629H156.513V44.4169H163.289V48.2478H152.59V21.4316H163.289V25.2625H156.513V32.732Z" fill="#0D47A1"/>
<path d="M166.213 42.3107L165.714 32.619V21.4331H169.637V32.619L169.138 42.3107H166.213ZM169.564 44.1866V48.2479H165.785V44.1866H169.564Z" fill="#0D47A1"/>
</svg>
