<svg width="50" height="50" viewBox="0 0 60 60" fill="none" xmlns="http://www.w3.org/2000/svg">
<path d="M34.8653 45.4784C34.2117 44.8896 33.4684 44.4225 32.6776 44.1034C31.887 43.7845 31.0643 43.6198 30.2569 43.6192C29.4493 43.6184 28.6727 43.7816 27.9714 44.0993C27.27 44.4169 26.6576 44.883 26.1692 45.4707L27.1645 46.3673C27.5553 45.8971 28.0452 45.5244 28.6062 45.2701C29.1674 45.016 29.7887 44.8855 30.4347 44.8861C31.0806 44.8866 31.7388 45.0183 32.3713 45.2735C33.0039 45.5287 33.5986 45.9025 34.1214 46.3734L34.8653 45.4784Z" fill="#5F4A8C"/>
<path d="M24.7771 39.3251L22.0462 36.8406C21.7446 36.5662 21.6847 36.1238 21.9124 35.8524L23.9746 33.3957C24.2024 33.1243 24.6316 33.1268 24.9332 33.4012L27.1179 35.3888C27.4196 35.6632 27.4795 36.1057 27.2517 36.377L26.4268 37.3597C28.8399 39.555 32.2735 39.5749 34.0957 37.404L33.0034 36.4103C32.7018 36.1359 32.6418 35.6934 32.8696 35.422L34.5194 33.4567C34.7472 33.1853 35.1764 33.1878 35.478 33.4622L38.2089 35.9466C38.5105 36.221 38.5704 36.6635 38.3426 36.9349L36.2804 39.3916C33.547 42.6479 28.3968 42.6181 24.7771 39.3251Z" fill="#BFAA6B"/>
<path d="M32.0649 46.4433C32.5393 46.6347 32.9854 46.9151 33.3774 47.2683L32.7079 48.0738C32.4335 47.8266 32.1213 47.6303 31.7892 47.4964C31.457 47.3624 31.1116 47.2933 30.7724 47.2931C30.4332 47.2927 30.1071 47.3612 29.8125 47.4946C29.518 47.6281 29.2607 47.8238 29.0556 48.0706L28.1598 47.2637C28.4528 46.9111 28.8203 46.6315 29.2411 46.4408C29.6619 46.2503 30.1279 46.1523 30.6124 46.1527C31.0969 46.1531 31.5904 46.2518 32.0649 46.4433Z" fill="#5F4A8C"/>
<path d="M59.7759 28.821C59.1703 27.357 57.8721 27.006 56.9936 26.922V18C56.9936 14.691 54.3044 12 50.9975 12H33.0089V7.83C33.9234 7.008 34.508 5.826 34.508 4.5C34.508 3.30653 34.0342 2.16193 33.1908 1.31802C32.3474 0.474106 31.2036 0 30.0109 0C28.8181 0 27.6743 0.474106 26.8309 1.31802C25.9875 2.16193 25.5137 3.30653 25.5137 4.5C25.5137 5.826 26.0984 7.008 27.0128 7.83V12H9.02424C5.71735 12 3.02807 14.691 3.02807 18V26.991L2.78223 27.009C2.02663 27.0636 1.31969 27.4024 0.80354 27.9572C0.287393 28.5121 0.00030654 29.242 0 30V36C0 36.7957 0.315869 37.5587 0.878119 38.1213C1.44037 38.6839 2.20295 39 2.99809 39H3.02807V54C3.02807 57.309 5.71735 60 9.02424 60H50.9975C54.3044 60 56.9936 57.309 56.9936 54V39C57.7888 39 58.5514 38.6839 59.1136 38.1213C59.6759 37.5587 59.9917 36.7957 59.9917 36V30.186C60.0263 29.7204 59.9524 29.2532 59.7759 28.821ZM9.02424 54V18H50.9975L51.0005 29.988L50.9975 30V36L51.0005 36.015L51.0035 54H9.02424Z" fill="black"/>
</svg>
