<svg width="50" height="50" viewBox="0 0 80 80" fill="none" xmlns="http://www.w3.org/2000/svg">
<path d="M46.4873 60.6372C45.616 59.8522 44.6248 59.2293 43.5705 58.8039C42.5163 58.3786 41.4194 58.1591 40.3428 58.1582C39.2661 58.1572 38.2306 58.3748 37.2955 58.7984C36.3603 59.2219 35.5438 59.8433 34.8926 60.627L36.2197 61.8224C36.7407 61.1955 37.394 60.6985 38.142 60.3595C38.8901 60.0207 39.7186 59.8467 40.58 59.8475C41.4411 59.8482 42.3187 60.0238 43.162 60.364C44.0055 60.7043 44.7984 61.2027 45.4955 61.8306L46.4873 60.6372Z" fill="#FEC171"/>
<path d="M33.0364 52.4338L29.3952 49.1213C28.9931 48.7554 28.9132 48.1654 29.2169 47.8036L31.9665 44.528C32.2702 44.1662 32.8425 44.1695 33.2446 44.5354L36.1576 47.1854C36.5598 47.5513 36.6396 48.1413 36.3359 48.5031L35.2361 49.8133C38.4536 52.7405 43.0316 52.767 45.4613 49.8725L44.0048 48.5474C43.6027 48.1816 43.5228 47.5916 43.8265 47.2298L46.0262 44.6093C46.3299 44.2475 46.9022 44.2509 47.3043 44.6167L50.9455 47.9293C51.3476 48.2951 51.4275 48.8851 51.1238 49.2469L48.3742 52.5225C44.7297 56.8643 37.8627 56.8246 33.0364 52.4338Z" fill="#FEC171"/>
<path d="M42.7527 61.9244C43.3853 62.1797 43.98 62.5535 44.5028 63.0244L43.6101 64.0985C43.2441 63.7689 42.8278 63.5072 42.3851 63.3286C41.9422 63.1499 41.4816 63.0578 41.0294 63.0575C40.5772 63.057 40.1423 63.1483 39.7495 63.3262C39.3568 63.5042 39.0138 63.7652 38.7403 64.0943L37.5459 63.0183C37.9366 62.5482 38.4266 62.1754 38.9877 61.9212C39.5488 61.6671 40.17 61.5365 40.816 61.5371C41.462 61.5376 42.1201 61.6692 42.7527 61.9244Z" fill="#FEC171"/>
<path d="M79.7012 38.428C78.8937 36.476 77.1628 36.008 75.9915 35.896V24C75.9915 19.588 72.4058 16 67.9966 16H44.0119V10.44C45.2311 9.344 46.0107 7.768 46.0107 6C46.0107 4.4087 45.3789 2.88258 44.2544 1.75736C43.1299 0.632141 41.6048 0 40.0145 0C38.4242 0 36.899 0.632141 35.7745 1.75736C34.65 2.88258 34.0183 4.4087 34.0183 6C34.0183 7.768 34.7978 9.344 36.017 10.44V16H12.0323C7.62314 16 4.03742 19.588 4.03742 24V35.988L3.70963 36.012C2.70217 36.0848 1.75958 36.5365 1.07139 37.2763C0.38319 38.0162 0.00040872 38.9893 0 40V48C0 49.0609 0.421159 50.0783 1.17083 50.8284C1.92049 51.5786 2.93726 52 3.99745 52H4.03742V72C4.03742 76.412 7.62314 80 12.0323 80H67.9966C72.4058 80 75.9915 76.412 75.9915 72V52C77.0517 52 78.0685 51.5786 78.8182 50.8284C79.5678 50.0783 79.989 49.0609 79.989 48V40.248C80.035 39.6272 79.9365 39.0042 79.7012 38.428ZM12.0323 72V24H67.9966L68.0006 39.984L67.9966 40V48L68.0006 48.02L68.0046 72H12.0323Z" fill="white"/>
</svg>
