<svg width="16" height="16" viewBox="0 0 16 16" fill="none" xmlns="http://www.w3.org/2000/svg">
<g clip-path="url(#clip0_1234_12594)">
<path fill-rule="evenodd" clip-rule="evenodd" d="M8.02224 8.92045C8.72637 9.50843 9.34022 9.80047 9.3949 9.74575L9.90573 9.23464C10.187 8.95306 10.336 8.8172 10.5407 8.6829C10.9663 8.40369 11.4305 8.32782 11.822 8.67789C13.1003 9.59224 13.8236 10.1533 14.178 10.5216C14.8692 11.2397 14.7786 12.3453 14.1819 12.9759C13.975 13.1946 13.7126 13.4571 13.4028 13.7558C11.6268 15.5328 7.98209 14.6014 5.02546 11.9172L1.80473 15.138L0.861923 14.1951L14.1953 0.861816L15.1381 1.80463L8.02224 8.92045ZM5.96934 10.9734C8.45189 13.2016 11.3322 13.9419 12.4692 12.8045C12.7742 12.5102 13.0228 12.2615 13.2142 12.0593C13.3524 11.9132 13.3771 11.6116 13.2181 11.4464C12.9532 11.1712 12.3047 10.6655 11.1849 9.8614C11.1033 9.92709 11.0029 10.0224 10.8481 10.1773L10.3372 10.6886C9.56899 11.4572 8.32307 10.9664 7.07322 9.86947L5.96934 10.9734ZM6.37555 6.95767L5.39506 7.93816C4.85807 7.04431 4.74241 6.22106 5.30761 5.65591C5.44552 5.51801 5.61575 5.34768 5.81829 5.14494C5.90001 5.06314 5.93739 5.02525 5.98226 4.9781C6.04339 4.91385 6.09362 4.85742 6.13384 4.80749C5.35693 3.72526 4.8288 3.04903 4.54409 2.76778C4.39705 2.62253 4.06781 2.64927 3.94694 2.76837C3.62457 3.08601 3.51861 3.19192 3.18417 3.53159C2.19727 4.51903 2.63992 6.84611 4.25629 9.07693L3.30271 10.0305C1.23318 7.27486 0.649798 4.18175 2.23835 2.59234C2.57414 2.25127 2.68486 2.14061 3.0119 1.81837C3.62078 1.21841 4.77729 1.12447 5.48033 1.81896C5.85013 2.18426 6.4397 2.94282 7.31633 4.16947C7.70697 4.6025 7.58312 5.09306 7.23771 5.55854C7.15582 5.66889 7.06143 5.77763 6.94742 5.89745C6.8927 5.95496 6.85003 5.99821 6.76078 6.08755C6.55809 6.29044 6.3877 6.46093 6.2496 6.59901C6.22558 6.62303 6.26901 6.756 6.37555 6.95767Z" fill="black"/>
</g>
<defs>
<clipPath id="clip0_1234_12594">
<rect width="16" height="16" fill="white"/>
</clipPath>
</defs>
</svg>
