<svg width="18" height="18" viewBox="0 0 18 18" fill="none" xmlns="http://www.w3.org/2000/svg">
<path d="M3.66667 17H14.3333V15.6667H17V11.6667C17 9.722 15.7123 8.073 13.945 7.52633C14.7783 6.99267 15.3333 6.06067 15.3333 5C15.3333 3.346 13.9877 2 12.3333 2C12.0483 2 11.7657 2.04267 11.4897 2.12433C10.8787 1.43667 9.99033 1 9 1C8.00967 1 7.12133 1.43667 6.51033 2.12433C6.23433 2.04267 5.95167 2 5.66667 2C4.01233 2 2.66667 3.346 2.66667 5C2.66667 6.06067 3.22167 6.99267 4.055 7.52633C2.28767 8.073 1 9.722 1 11.6667V15.6667H3.66667V17ZM13.6667 16.3333H4.33333V15.6667V11.3333C4.33333 11.222 4.34033 11.112 4.35 11.003C4.35333 10.9673 4.35767 10.932 4.36167 10.8963C4.37067 10.821 4.38233 10.7467 4.396 10.673C4.403 10.6357 4.40867 10.598 4.41667 10.561C4.43733 10.4653 4.46167 10.3713 4.48933 10.2783C4.50333 10.2323 4.52 10.1877 4.53567 10.1423C4.55367 10.0897 4.57267 10.0377 4.593 9.986C4.61267 9.93633 4.63333 9.887 4.655 9.83833C4.67633 9.79067 4.69967 9.744 4.723 9.69733C4.757 9.62933 4.793 9.56267 4.831 9.497C4.86433 9.44 4.89767 9.383 4.93367 9.328C4.96167 9.28533 4.99167 9.244 5.02133 9.20233C5.05267 9.15833 5.085 9.115 5.11833 9.07267C5.149 9.03367 5.17967 8.995 5.212 8.95733C5.254 8.90833 5.29767 8.861 5.342 8.81433C5.383 8.771 5.425 8.72833 5.468 8.687C5.521 8.63633 5.57467 8.58667 5.63067 8.539C5.66733 8.508 5.70533 8.47833 5.74333 8.44867C5.787 8.41467 5.831 8.38133 5.87633 8.34933C5.91833 8.31933 5.96033 8.28967 6.004 8.26133C6.048 8.23267 6.09333 8.20633 6.13833 8.17967C6.22333 8.12933 6.31067 8.08233 6.40033 8.03867C6.44533 8.01667 6.48967 7.99367 6.53567 7.97333L6.58933 7.94933C7.024 7.76767 7.50033 7.66667 8 7.66667H10C10.4997 7.66667 10.976 7.76767 11.4103 7.94967L11.464 7.97367C11.51 7.99367 11.5543 8.017 11.5993 8.039C11.689 8.08267 11.7763 8.12967 11.8613 8.18C11.9067 8.20667 11.952 8.233 11.9957 8.26167C12.039 8.29 12.0813 8.31967 12.1233 8.34967C12.1683 8.38167 12.2127 8.415 12.2563 8.449C12.2943 8.47867 12.3323 8.50833 12.369 8.53933C12.425 8.58667 12.4787 8.63667 12.5317 8.68733C12.575 8.72867 12.6167 8.77133 12.6577 8.81467C12.702 8.86133 12.746 8.90867 12.7877 8.95767C12.8197 8.99533 12.8507 9.034 12.8813 9.073C12.9147 9.11533 12.947 9.15867 12.9783 9.20267C13.008 9.24433 13.0383 9.28533 13.066 9.32833C13.102 9.38333 13.1357 9.44033 13.1687 9.49733C13.2067 9.563 13.2427 9.63 13.2767 9.69767C13.3 9.74433 13.3233 9.791 13.3447 9.83867C13.3667 9.88733 13.387 9.93667 13.4067 9.98633C13.427 10.0377 13.4457 10.09 13.464 10.1427C13.4797 10.188 13.4963 10.233 13.5103 10.2787C13.5383 10.3713 13.5627 10.4657 13.583 10.5613C13.591 10.5983 13.597 10.636 13.6037 10.6733C13.617 10.747 13.629 10.8217 13.638 10.8967C13.6423 10.932 13.6467 10.9677 13.6497 11.0033C13.6597 11.112 13.6667 11.222 13.6667 11.3333V15.6667V16.3333ZM16.3333 11.6667V15H14.3333V11.3333C14.3333 11.175 14.3237 11.019 14.307 10.865C14.303 10.8287 14.2953 10.7933 14.2907 10.7573C14.2747 10.6383 14.256 10.52 14.2307 10.4043C14.2223 10.3663 14.211 10.3297 14.2017 10.292C14.1737 10.179 14.1427 10.0673 14.106 9.958C14.0937 9.921 14.0793 9.885 14.066 9.84867C14.0267 9.741 13.9837 9.635 13.9363 9.53167C13.9197 9.49533 13.902 9.45933 13.884 9.42367C13.8343 9.32267 13.781 9.22433 13.7237 9.128C13.7027 9.09267 13.6817 9.05733 13.6593 9.02233C13.5993 8.928 13.5357 8.83667 13.469 8.74733C13.4447 8.71467 13.4213 8.68167 13.396 8.64967C13.323 8.55733 13.2453 8.469 13.165 8.383C13.1423 8.35867 13.1213 8.333 13.098 8.30933C12.9927 8.20133 12.8827 8.098 12.7667 8.00167C14.7423 8.05467 16.3333 9.67833 16.3333 11.6667ZM11.9077 2.707C12.0483 2.68033 12.1903 2.66667 12.3333 2.66667C13.6197 2.66667 14.6667 3.71333 14.6667 5C14.6667 6.28667 13.6197 7.33333 12.3333 7.33333C11.8757 7.33333 11.4353 7.2 11.058 6.952C11.063 6.94833 11.067 6.94367 11.0717 6.93967C11.3587 6.71133 11.606 6.43667 11.8047 6.127C11.811 6.117 11.8167 6.107 11.823 6.097C11.8807 6.005 11.9337 5.91033 11.9823 5.81267C11.9903 5.79667 11.9977 5.78067 12.0053 5.76467C12.0497 5.67233 12.0893 5.57767 12.125 5.48067C12.1323 5.46067 12.14 5.44067 12.147 5.42067C12.1793 5.32767 12.207 5.23267 12.231 5.136C12.237 5.112 12.244 5.08833 12.2493 5.06433C12.2707 4.97 12.2867 4.874 12.2997 4.77667C12.3033 4.751 12.3087 4.72567 12.3113 4.69967C12.3253 4.57967 12.3333 4.45733 12.3333 4.33333C12.3333 4.20133 12.3237 4.072 12.3087 3.944C12.304 3.90333 12.2963 3.86333 12.29 3.82267C12.276 3.73333 12.2593 3.645 12.2387 3.558C12.2287 3.51567 12.218 3.47367 12.2063 3.432C12.1793 3.33567 12.1477 3.24133 12.1123 3.149C12.1023 3.12333 12.0943 3.097 12.084 3.07167C12.0333 2.94833 11.9757 2.829 11.911 2.71333C11.9093 2.711 11.9087 2.709 11.9077 2.707ZM11.0543 2.635L11.0747 2.66133C11.091 2.68167 11.1057 2.703 11.1213 2.72367C11.2913 2.94733 11.4213 3.191 11.5127 3.448C11.5187 3.46467 11.5253 3.481 11.531 3.498C11.5707 3.61767 11.6007 3.74 11.623 3.86467C11.6277 3.89067 11.6313 3.91733 11.635 3.94367C11.6537 4.072 11.6667 4.20167 11.6667 4.33333C11.6667 4.44267 11.6583 4.55067 11.645 4.65767C11.642 4.68267 11.6373 4.70733 11.6337 4.73233C11.62 4.82067 11.603 4.908 11.5807 4.99367C11.576 5.01167 11.5717 5.03 11.5667 5.048C11.5063 5.26267 11.4203 5.46867 11.3097 5.66067C11.3077 5.664 11.3057 5.66733 11.3037 5.67067C11.25 5.763 11.19 5.852 11.1253 5.93733C11.1193 5.945 11.1137 5.953 11.1077 5.961C10.972 6.13667 10.814 6.29567 10.6363 6.43433C10.626 6.44233 10.615 6.45 10.6047 6.458C10.5223 6.52033 10.4363 6.57833 10.3463 6.63133C10.3303 6.64067 10.3153 6.651 10.299 6.66L10.261 6.682C9.885 6.88467 9.456 7 9 7C8.544 7 8.115 6.88467 7.73933 6.682L7.70133 6.66C7.68533 6.651 7.67 6.64067 7.654 6.63133C7.564 6.57833 7.478 6.52033 7.39567 6.458C7.385 6.45 7.37433 6.44233 7.364 6.43433C7.18667 6.29567 7.02867 6.13667 6.89267 5.961C6.88667 5.95333 6.881 5.94533 6.875 5.93733C6.81033 5.852 6.75067 5.763 6.69667 5.67067C6.69467 5.66733 6.69267 5.664 6.69067 5.66067C6.57967 5.46833 6.49367 5.26233 6.43333 5.04767C6.42833 5.03 6.424 5.01167 6.41933 4.994C6.397 4.908 6.38 4.82067 6.36633 4.73233C6.36267 4.70733 6.358 4.683 6.355 4.65767C6.34167 4.55067 6.33333 4.44267 6.33333 4.33333C6.33333 4.20167 6.34633 4.072 6.365 3.944C6.369 3.91767 6.37233 3.89133 6.377 3.865C6.39933 3.74067 6.42933 3.618 6.469 3.49833C6.47467 3.48133 6.48133 3.465 6.48733 3.44833C6.57867 3.19133 6.70867 2.94733 6.87867 2.724C6.89433 2.70333 6.909 2.68167 6.92533 2.66167L6.94567 2.63533C7.43533 2.044 8.17433 1.66667 9 1.66667C9.82567 1.66667 10.5647 2.044 11.0543 2.635ZM3.33333 5C3.33333 3.71333 4.38033 2.66667 5.66667 2.66667C5.80967 2.66667 5.95167 2.68033 6.09233 2.707C6.09133 2.709 6.09033 2.71133 6.08933 2.71333C6.025 2.82867 5.967 2.948 5.91633 3.07133C5.90567 3.097 5.89767 3.12333 5.88767 3.14933C5.85233 3.24167 5.82067 3.336 5.79367 3.432C5.782 3.47367 5.77133 3.51567 5.76133 3.558C5.74067 3.645 5.724 3.73333 5.71 3.82267C5.70367 3.863 5.69633 3.903 5.69133 3.944C5.67633 4.072 5.66667 4.20133 5.66667 4.33333C5.66667 4.45733 5.67467 4.57967 5.688 4.7C5.691 4.726 5.69633 4.751 5.69967 4.77667C5.71267 4.874 5.729 4.97033 5.75 5.06467C5.75533 5.08867 5.76233 5.112 5.76833 5.13567C5.79233 5.23233 5.82 5.32767 5.85233 5.421C5.85933 5.44133 5.867 5.461 5.87433 5.48133C5.91 5.578 5.95 5.67267 5.994 5.765C6.00167 5.781 6.00933 5.79733 6.01733 5.81333C6.066 5.911 6.119 6.00567 6.17667 6.09767C6.183 6.10767 6.18867 6.11767 6.195 6.12767C6.39367 6.43733 6.64133 6.71167 6.928 6.94033C6.93267 6.94433 6.937 6.94867 6.94167 6.95267C6.56467 7.2 6.12433 7.33333 5.66667 7.33333C4.38033 7.33333 3.33333 6.28667 3.33333 5ZM1.66667 15V11.6667C1.66667 9.67833 3.25767 8.05467 5.23367 8.00133C5.11767 8.09767 5.00767 8.20133 4.90233 8.309C4.879 8.33267 4.858 8.35833 4.83533 8.38267C4.755 8.46867 4.67733 8.557 4.604 8.64967C4.579 8.68133 4.55567 8.71433 4.53133 8.747C4.46433 8.83633 4.40067 8.92767 4.34067 9.02233C4.31867 9.05733 4.29767 9.09233 4.27633 9.128C4.219 9.22433 4.16567 9.32267 4.116 9.42367C4.09833 9.45967 4.08067 9.49533 4.06367 9.53167C4.016 9.635 3.97333 9.741 3.934 9.84867C3.92067 9.88533 3.90633 9.921 3.894 9.958C3.85733 10.0677 3.82633 10.1793 3.798 10.2927C3.78867 10.33 3.77767 10.3667 3.76933 10.4043C3.744 10.5203 3.72533 10.6387 3.70933 10.758C3.70433 10.794 3.697 10.829 3.693 10.8653C3.67633 11.019 3.66667 11.175 3.66667 11.3333V15H1.66667Z" fill="black" stroke="black" stroke-width="0.5"/>
</svg>
