<svg width="16" height="16" viewBox="0 0 16 16" fill="none" xmlns="http://www.w3.org/2000/svg">
<g clip-path="url(#clip0_1234_12613)">
<path fill-rule="evenodd" clip-rule="evenodd" d="M6.97742 3.57007C7.18335 3.98868 6.98076 4.33907 6.61318 4.62169C6.52603 4.68869 6.42962 4.75172 6.31569 4.81898C6.261 4.85127 6.21871 4.87522 6.13049 4.92444C5.93015 5.03623 5.76175 5.13015 5.62528 5.2062C5.55911 5.24308 5.71116 6.04607 6.19977 6.92355C6.68811 7.80055 7.2911 8.35239 7.3576 8.3153L7.86246 8.03374C8.14051 7.87859 8.28486 7.80663 8.47176 7.74806C8.8603 7.6263 9.2341 7.66943 9.45882 8.02441C10.2425 9.0075 10.6765 9.59743 10.8687 9.95824C11.2435 10.662 10.9321 11.4928 10.335 11.8476C10.128 11.9706 9.86867 12.1153 9.5649 12.2773C7.71244 13.3105 4.91792 11.5672 3.24853 8.56919C1.57877 5.5705 1.56606 2.27698 3.41463 1.24604C3.74762 1.05704 3.85702 0.996102 4.17914 0.819672C4.77889 0.491192 5.6894 0.671826 6.07855 1.35995C6.28324 1.7219 6.57105 2.43451 6.97742 3.57007ZM8.38152 8.9652L7.87656 9.24681C7.01823 9.7255 6.04204 8.83213 5.26838 7.44272C4.49418 6.05236 4.24813 4.75295 5.10662 4.27452C5.2429 4.19857 5.41114 4.10474 5.61133 3.99304C5.69211 3.94797 5.72916 3.92699 5.774 3.90052C5.83509 3.86445 5.88608 3.83201 5.92795 3.80239C5.56674 2.79977 5.3082 2.16394 5.1506 1.88527C5.06922 1.74135 4.81001 1.68993 4.69095 1.75514C4.37342 1.92905 4.26872 1.98737 3.93709 2.17559C2.74826 2.8386 2.75853 5.49736 4.17993 8.05002C5.60088 10.6019 7.85669 12.0091 9.05452 11.3411C9.3536 11.1815 9.59927 11.0445 9.79073 10.9307C9.92907 10.8485 10.014 10.6219 9.92777 10.46C9.78411 10.1902 9.39563 9.65936 8.70977 8.79574C8.63259 8.82844 8.53454 8.87981 8.38152 8.9652Z" fill="black"/>
<path d="M12.1867 7.54154C12.1512 7.51888 12.1209 7.48928 12.0982 7.45516C12.0755 7.42104 12.061 7.38336 12.056 7.34521L11.9445 6.47272C11.7901 5.28636 11.1496 4.14387 10.1617 3.29258L9.69402 4.02072C9.67086 4.05678 9.63655 4.08467 9.59495 4.10128C9.55334 4.11788 9.50607 4.12254 9.45845 4.11473C9.41082 4.10692 9.36471 4.08695 9.32529 4.05705C9.28587 4.02716 9.25469 3.98853 9.23525 3.94548L7.66515 0.468642C7.64891 0.432658 7.64135 0.394678 7.64309 0.357711C7.64483 0.320745 7.65581 0.285806 7.67517 0.255662C7.69453 0.225518 7.72174 0.200997 7.75463 0.184041C7.78753 0.167085 7.82521 0.158159 7.86469 0.15797L11.6796 0.139752C11.7268 0.139527 11.7749 0.151811 11.8185 0.175227C11.8621 0.198643 11.8994 0.232267 11.9263 0.272331C11.9532 0.312394 11.9686 0.357315 11.9709 0.402059C11.9731 0.446803 11.962 0.489603 11.9388 0.525663L11.41 1.34894C12.3222 2.13052 12.9492 3.15866 13.1784 4.24884C13.4075 5.33901 13.2239 6.41983 12.6605 7.29731L12.5357 7.49148C12.5094 7.53241 12.4688 7.56267 12.4197 7.57794C12.3706 7.59321 12.3156 7.59271 12.2625 7.57651C12.236 7.56808 12.2105 7.55631 12.1867 7.54154ZM10.2042 2.73295L10.2266 2.74736C10.8367 3.22077 11.3502 3.79763 11.7339 4.44051C12.1176 5.08339 12.3629 5.77791 12.4539 6.479L12.4636 6.54283C12.8172 5.73916 12.8572 4.81077 12.5772 3.90537C12.2973 2.99997 11.7135 2.16958 10.9188 1.54631C10.867 1.50562 10.8308 1.45016 10.8169 1.39061C10.8031 1.33107 10.8126 1.27167 10.8438 1.22389L11.2317 0.62002L8.27425 0.640434L9.49469 3.34416L9.8551 2.78301C9.87258 2.75596 9.89641 2.73344 9.92505 2.71688C9.9537 2.70032 9.98653 2.69011 10.0214 2.68688C10.0834 2.68094 10.1485 2.69736 10.2042 2.73295Z" fill="#101820" stroke="black" stroke-width="0.25"/>
</g>
<defs>
<clipPath id="clip0_1234_12613">
<rect width="16" height="16" fill="white"/>
</clipPath>
</defs>
</svg>
