<svg width="16" height="16" viewBox="0 0 16 16" fill="none" xmlns="http://www.w3.org/2000/svg">
<path fill-rule="evenodd" clip-rule="evenodd" d="M13 7C12.7239 7 12.5 7.22386 12.5 7.5C12.5 7.69515 12.4858 7.88671 12.4619 8.0752L13.3281 8.8623C13.4397 8.42655 13.5 7.96992 13.5 7.5C13.5 7.22386 13.2761 7 13 7Z" fill="black"/>
<path fill-rule="evenodd" clip-rule="evenodd" d="M2.97559 1.00112C2.8433 1.00757 2.71897 1.06622 2.62988 1.16421C2.44444 1.36865 2.45969 1.68469 2.66408 1.87026L5 3.99429C4.99999 3.99629 5 3.99828 5 4.00013V8.00013C5 9.65348 6.34665 11.0001 8 11.0001C9.22149 11.0001 10.275 10.2647 10.7422 9.214L11.6904 10.0763C10.8784 11.24 9.53131 12.0001 8 12.0001C5.50881 12.0001 3.49999 9.99134 3.5 7.50015C3.5 7.22401 3.27614 7.00015 3 7.00015C2.72386 7.00015 2.5 7.22401 2.5 7.50015C2.5 10.3632 4.70171 12.723 7.5 12.9767V15.0001C7.5 15.2763 7.72386 15.5001 8 15.5001C8.27614 15.5001 8.5 15.2763 8.5 15.0001V12.9748C10.1102 12.8285 11.5234 11.9869 12.4326 10.7511L13.6641 11.8703C13.8685 12.0557 14.1845 12.0405 14.3701 11.8361C14.5556 11.6316 14.5403 11.3156 14.3359 11.13C10.6947 7.81898 6.5825 4.08029 3.33592 1.13001C3.23765 1.04095 3.10805 0.994604 2.97559 1.00112ZM6 4.90249L9.94043 8.48452C9.72735 9.36132 8.94888 10.0001 8 10.0001C6.88336 10.0001 6 9.11679 6 8.00015V4.90249Z" fill="black"/>
<path fill-rule="evenodd" clip-rule="evenodd" d="M8 1C7.11742 1 6.32206 1.38388 5.77246 1.99316L6.50781 2.66211C6.87217 2.25494 7.40173 2 8 2C9.11664 2 10 2.88336 10 4V5.83691L11 6.74609V4C11 2.34665 9.65335 1 8 1Z" fill="black"/>
</svg>
