<svg width="16" height="16" viewBox="0 0 16 16" fill="none" xmlns="http://www.w3.org/2000/svg">
<g clip-path="url(#clip0_1234_12600)">
<path d="M7.31016 5.32166L7.3176 5.33376L7.32636 5.34494C7.40553 5.446 7.41953 5.53301 7.40446 5.61732C7.38729 5.71337 7.32735 5.82872 7.21517 5.95976C7.16355 6.02008 7.10269 6.08141 7.02503 6.15241C6.9878 6.18646 6.95889 6.21197 6.89499 6.2676L6.52689 6.58791C6.44728 6.65715 6.43831 6.74706 6.43637 6.77121C6.4335 6.80689 6.43737 6.83859 6.44079 6.85945C6.44795 6.90312 6.46193 6.94974 6.47748 6.99369C6.50954 7.08427 6.56126 7.19939 6.62992 7.32873C6.76785 7.58856 6.98361 7.92353 7.2749 8.25872C7.56607 8.59378 7.86773 8.85401 8.10589 9.02669C8.22444 9.11265 8.33132 9.17986 8.41666 9.22418C8.45806 9.24568 8.50237 9.266 8.54473 9.27913C8.56497 9.28541 8.5959 9.29362 8.63171 9.29567C8.65618 9.29707 8.74613 9.30038 8.82546 9.23134L9.1934 8.91117L9.19344 8.91113C9.3941 8.73645 9.48463 8.66642 9.60502 8.59892C9.73014 8.52876 9.8395 8.49881 9.92811 8.50086C10.009 8.50274 10.0879 8.53108 10.1666 8.61192L10.1761 8.62166L10.1865 8.63032C11.0089 9.3096 11.4503 9.70635 11.654 9.94983C11.9918 10.3534 11.907 10.9428 11.5641 11.2581C11.4183 11.3922 11.2324 11.5539 11.0115 11.7391L11.0115 11.739L11.008 11.7421C10.4275 12.2472 9.54457 12.3218 8.52975 11.9721C7.51998 11.6242 6.42784 10.8683 5.5014 9.80218C4.57471 8.73581 3.97783 7.54883 3.77303 6.50045C3.56719 5.44668 3.76288 4.58317 4.34186 4.07936L4.34187 4.07936L4.34328 4.07812C4.58444 3.86505 4.66323 3.79657 4.89759 3.59576C5.24139 3.3012 5.86704 3.2985 6.20945 3.6873C6.42474 3.93175 6.7753 4.45126 7.31016 5.32166ZM6.88032 5.73487L7.00964 5.5954L6.90971 5.43355C6.43986 4.67258 6.10487 4.17333 5.90976 3.95178C5.80057 3.82779 5.6426 3.79075 5.52912 3.7862C5.41826 3.78176 5.26769 3.80502 5.15735 3.89956C4.92463 4.09896 4.84729 4.16618 4.60575 4.37957C4.063 4.85259 3.98961 5.71624 4.20677 6.61525C4.42896 7.53508 4.97217 8.58381 5.80284 9.53969C6.63328 10.4953 7.59613 11.179 8.477 11.526C9.33791 11.8652 10.2039 11.9102 10.7504 11.4365C10.9704 11.252 11.1521 11.094 11.2939 10.9636C11.3978 10.868 11.4512 10.733 11.4638 10.6085C11.4766 10.4823 11.4508 10.3298 11.3477 10.2066C11.1646 9.9878 10.7318 9.60161 10.0208 9.0121L9.87446 8.89074L9.71842 8.99937C9.64801 9.04839 9.56679 9.11606 9.45556 9.2129C9.45554 9.21291 9.45553 9.21292 9.45552 9.21293L9.08754 9.53314C8.8771 9.71626 8.59742 9.73779 8.21966 9.56097C7.83645 9.3816 7.40318 9.01571 6.97346 8.52121C6.54338 8.02631 6.24123 7.54626 6.11683 7.14179C5.99421 6.74313 6.05434 6.46915 6.26491 6.28603L6.63284 5.96586C6.69196 5.9144 6.72082 5.88898 6.75562 5.85716C6.8029 5.81393 6.8447 5.77329 6.88032 5.73487Z" fill="black" stroke="black" stroke-width="0.5"/>
<g clip-path="url(#clip1_1234_12600)">
<path d="M15.6958 8.91457C16.201 4.66431 13.1651 0.809187 8.91477 0.303962C4.66448 -0.201263 0.809387 2.83473 0.304166 7.08499C-0.201056 11.3353 2.83493 15.1904 7.0852 15.6956C11.3355 16.2008 15.1906 13.1649 15.6958 8.91457ZM11.5575 12.5172C9.28515 14.3067 6.16418 14.079 4.16906 12.2896L13.0683 5.28122C14.3409 7.64181 13.8286 10.7286 11.5575 12.5172ZM4.44246 3.48241C6.71483 1.69287 9.8358 1.9206 11.8309 3.70995L2.93166 10.7183C1.65903 8.35778 2.17134 5.27096 4.44246 3.48241Z" fill="black" stroke="black" stroke-width="0.012"/>
</g>
</g>
<defs>
<clipPath id="clip0_1234_12600">
<rect width="16" height="16" fill="white"/>
</clipPath>
<clipPath id="clip1_1234_12600">
<rect width="16" height="16" fill="white"/>
</clipPath>
</defs>
</svg>
