<svg width="15" height="15" viewBox="0 0 15 15" fill="none" xmlns="http://www.w3.org/2000/svg">
<path fill-rule="evenodd" clip-rule="evenodd" d="M5.98622 4.16938C6.37686 4.6024 6.253 5.09297 5.9076 5.55844C5.82571 5.6688 5.73131 5.77753 5.61731 5.89735C5.56259 5.95486 5.51992 5.99811 5.43067 6.08745C5.22797 6.29035 5.05758 6.46083 4.91949 6.59892C4.85252 6.66588 5.30973 7.57952 6.19706 8.46773C7.08391 9.35544 7.99751 9.81297 8.06479 9.74565L8.57562 9.23454C8.85693 8.95296 9.0059 8.8171 9.21061 8.6828C9.63619 8.4036 10.1004 8.32772 10.4919 8.67779C11.7701 9.59215 12.4935 10.1532 12.8479 10.5215C13.5391 11.2396 13.4485 12.3452 12.8518 12.9758C12.6449 13.1945 12.3825 13.457 12.0727 13.7557C10.1983 15.6311 6.24252 14.4898 3.21085 11.4552C0.178486 8.41984 -0.962201 4.46368 0.908233 2.59224C1.24403 2.25117 1.35474 2.14051 1.68178 1.81827C2.29067 1.21831 3.44718 1.12437 4.15022 1.81886C4.52002 2.18417 5.10958 2.94272 5.98622 4.16938ZM9.51801 10.1773L9.00708 10.6885C8.13861 11.5574 6.65958 10.8167 5.25457 9.41033C3.8486 8.00298 3.10873 6.5245 3.97749 5.65581C4.11541 5.51791 4.28563 5.34759 4.48817 5.14485C4.56989 5.06305 4.60728 5.02516 4.65214 4.978C4.71327 4.91375 4.76351 4.85732 4.80373 4.80739C4.02681 3.72516 3.49868 3.04893 3.21397 2.76768C3.06694 2.62243 2.7377 2.64918 2.61682 2.76827C2.29446 3.08591 2.18849 3.19182 1.85405 3.53149C0.651177 4.73503 1.57202 7.92871 4.15334 10.5126C6.73385 13.0956 9.92706 14.0169 11.1391 12.8044C11.4441 12.5101 11.6927 12.2614 11.884 12.0592C12.0223 11.9131 12.047 11.6115 11.888 11.4463C11.6231 11.1711 10.9746 10.6654 9.85479 9.8613C9.77317 9.92699 9.67283 10.0223 9.51801 10.1773Z" fill="black"/>
<path d="M13.6942 6.97625C13.5691 6.97676 13.4452 6.95232 13.3297 6.90437C13.2142 6.85643 13.1094 6.78593 13.0214 6.69701L12.336 6.0116C12.2812 5.95133 12.2517 5.8723 12.2535 5.79086C12.2554 5.70943 12.2885 5.63183 12.346 5.57413C12.4035 5.51642 12.481 5.48304 12.5624 5.4809C12.6438 5.47875 12.723 5.508 12.7834 5.56259L13.4704 6.248C13.5299 6.3071 13.6103 6.34028 13.6942 6.34028C13.778 6.34028 13.8584 6.3071 13.9179 6.248C13.977 6.18855 14.0101 6.10812 14.0101 6.02429C14.0101 5.94046 13.977 5.86003 13.9179 5.80058L11.8426 3.72371C11.7835 3.66426 11.7503 3.58383 11.7503 3.5C11.7503 3.41617 11.7835 3.33574 11.8426 3.27629L13.9179 1.19942C13.977 1.13997 14.0101 1.05954 14.0101 0.97571C14.0101 0.891878 13.977 0.811453 13.9179 0.751998C13.8584 0.692897 13.778 0.659724 13.6942 0.659724C13.6103 0.659724 13.5299 0.692897 13.4704 0.751998L11.3936 2.82728C11.3341 2.88638 11.2537 2.91955 11.1699 2.91955C11.086 2.91955 11.0056 2.88638 10.9461 2.82728L8.86928 0.751998C8.80983 0.692897 8.7294 0.659724 8.64557 0.659724C8.56174 0.659724 8.48131 0.692897 8.42186 0.751998C8.36276 0.811453 8.32958 0.891878 8.32958 0.97571C8.32958 1.05954 8.36276 1.13997 8.42186 1.19942L10.4971 3.27629C10.5562 3.33574 10.5894 3.41617 10.5894 3.5C10.5894 3.58383 10.5562 3.66426 10.4971 3.72371L8.42186 5.80058C8.36276 5.86003 8.32958 5.94046 8.32958 6.02429C8.32958 6.10812 8.36276 6.18855 8.42186 6.248C8.48131 6.3071 8.56174 6.34028 8.64557 6.34028C8.7294 6.34028 8.80983 6.3071 8.86928 6.248L10.9461 4.17272C11.0056 4.11362 11.086 4.08045 11.1699 4.08045C11.2537 4.08045 11.3341 4.11362 11.3936 4.17272L11.7807 4.55985C11.8402 4.61982 11.8735 4.70098 11.8732 4.78548C11.8729 4.86998 11.8391 4.95091 11.7791 5.01045C11.7192 5.06999 11.638 5.10327 11.5535 5.10298C11.469 5.10268 11.3881 5.06883 11.3285 5.00886L11.1699 4.8502L9.31829 6.69701C9.23114 6.79054 9.12604 6.86556 9.00927 6.91759C8.8925 6.96962 8.76644 6.9976 8.63862 6.99985C8.5108 7.00211 8.38383 6.97859 8.2653 6.93072C8.14676 6.88284 8.03908 6.81157 7.94868 6.72118C7.85829 6.63078 7.78702 6.5231 7.73915 6.40456C7.69127 6.28603 7.66775 6.15906 7.67001 6.03124C7.67226 5.90342 7.70024 5.77737 7.75227 5.66059C7.8043 5.54382 7.87932 5.43872 7.97285 5.35157L9.82283 3.5L7.97285 1.64843C7.87932 1.56128 7.8043 1.45618 7.75227 1.33941C7.70024 1.22263 7.67226 1.09658 7.67001 0.968757C7.66775 0.840937 7.69127 0.713971 7.73915 0.595435C7.78702 0.476899 7.85829 0.369221 7.94868 0.278824C8.03908 0.188427 8.14676 0.117164 8.2653 0.0692848C8.38383 0.0214061 8.5108 -0.00210709 8.63862 0.000148152C8.76644 0.0024034 8.8925 0.0303808 9.00927 0.0824113C9.12604 0.134442 9.23114 0.209459 9.31829 0.302989L11.1699 2.15297L13.0214 0.302989C13.1086 0.209459 13.2137 0.134442 13.3305 0.0824113C13.4472 0.0303808 13.5733 0.0024034 13.7011 0.000148152C13.8289 -0.00210709 13.9559 0.0214061 14.0744 0.0692848C14.193 0.117164 14.3006 0.188427 14.391 0.278824C14.4814 0.369221 14.5527 0.476899 14.6006 0.595435C14.6485 0.713971 14.672 0.840937 14.6697 0.968757C14.6675 1.09658 14.6395 1.22263 14.5874 1.33941C14.5354 1.45618 14.4604 1.56128 14.3669 1.64843L12.5169 3.5L14.3669 5.35157C14.4998 5.4847 14.5904 5.65425 14.627 5.8388C14.6637 6.02335 14.6448 6.21463 14.5729 6.38848C14.5009 6.56232 14.379 6.71094 14.2226 6.81555C14.0662 6.92017 13.8823 6.97609 13.6942 6.97625Z" fill="black"/>
</svg>
