<svg width="16" height="16" viewBox="0 0 16 16" fill="none" xmlns="http://www.w3.org/2000/svg">
<path fill-rule="evenodd" clip-rule="evenodd" d="M9.61782 6.21599C9.2061 6.07896 8.61583 6.00013 7.99784 6C7.38025 5.99987 6.79002 6.07864 6.37823 6.21575C6.19854 6.27558 6.06836 6.34166 5.99879 6.39961V6.99986C5.99887 7.37073 5.99017 7.55855 5.94321 7.78444C5.84353 8.26394 5.57669 8.63535 5.06529 8.66479C3.71995 8.88828 2.82131 9 2.33303 9C1.36148 9 0.666664 8.13122 0.666664 7.33333V6.33333C0.666664 3.85074 4.01776 1.99914 7.99813 2C11.9794 2.00086 15.3293 3.85126 15.3291 6.31523C15.3321 6.42606 15.3334 6.54093 15.3333 6.6703C15.3333 6.76455 15.3328 6.83915 15.3313 7.00604C15.3298 7.17069 15.3293 7.24342 15.3293 7.33333C15.3293 8.12638 14.6336 9 13.6629 9C13.1751 9 12.2777 8.88849 10.9345 8.66542C10.233 8.63694 10.0403 8.12296 10.0035 7.36273C9.99828 7.25404 9.99722 7.16968 9.99718 7.00075C9.99713 6.65547 9.99712 6.62703 9.99717 6.39968C9.92759 6.34179 9.79745 6.27578 9.61782 6.21599ZM4.66546 7V6.33333C4.66546 5.15605 6.13643 4.66627 7.99813 4.66667C9.86092 4.66707 11.3305 5.15619 11.3305 6.33333C11.3305 6.62444 11.3305 6.62444 11.3305 6.99986C11.3305 7.14834 11.3314 7.2179 11.3353 7.29838C11.3367 7.32807 11.3386 7.35569 11.3407 7.38101C12.5077 7.57143 13.2921 7.66667 13.6629 7.66667C13.8219 7.66667 13.996 7.44815 13.996 7.33333C13.996 7.23806 13.9965 7.16264 13.998 6.99396C13.9995 6.83102 14 6.75904 14 6.67005C14 6.55202 13.9989 6.44894 13.996 6.33333C13.996 4.80072 11.3407 3.33406 7.99784 3.33333C4.656 3.33261 2 4.80015 2 6.33333V7.33333C2 7.45212 2.17159 7.66667 2.33303 7.66667C2.70394 7.66667 3.48852 7.57141 4.65574 7.38094C4.66301 7.29164 4.66549 7.17377 4.66546 7ZM7.33333 11.7239V8H8.66666V11.7239L10.1953 10.1953L11.1381 11.1381L8 14.2761L4.86193 11.1381L5.80474 10.1953L7.33333 11.7239Z" fill="black"/>
</svg>
