<svg width="16" height="16" viewBox="0 0 16 16" fill="none" xmlns="http://www.w3.org/2000/svg">
<path d="M13.3333 3.33333H8.66667V2.66667C8.66667 2.48986 8.59643 2.32029 8.4714 2.19526C8.34638 2.07024 8.17681 2 8 2C7.82319 2 7.65362 2.07024 7.5286 2.19526C7.40357 2.32029 7.33333 2.48986 7.33333 2.66667V3.33333H2.66667C2.48986 3.33333 2.32029 3.40357 2.19526 3.5286C2.07024 3.65362 2 3.82319 2 4C2 4.17681 2.07024 4.34638 2.19526 4.4714C2.32029 4.59643 2.48986 4.66667 2.66667 4.66667H10.5881C10.2884 6.66509 9.36955 8.51923 7.96098 9.96818C6.98543 8.96716 6.23981 7.76552 5.77604 6.44694C5.71759 6.2802 5.59535 6.14348 5.43617 6.0668C5.27699 5.99012 5.09388 5.97975 4.92706 6.03797C4.76024 6.0962 4.62335 6.21825 4.54645 6.37732C4.46955 6.5364 4.45893 6.71949 4.51693 6.88639C5.03946 8.37152 5.87631 9.72641 6.97034 10.8586C5.84216 11.7485 4.52738 12.3718 3.12434 12.682C2.96385 12.7172 2.82202 12.8104 2.72606 12.9438C2.63009 13.0772 2.58674 13.2413 2.60433 13.4046C2.62193 13.568 2.69922 13.7191 2.82138 13.829C2.94354 13.9389 3.10197 13.9998 3.26627 14C3.31443 14 3.36244 13.9948 3.40951 13.9847C5.08057 13.6161 6.64093 12.858 7.96351 11.7721C9.2894 12.8571 10.8519 13.615 12.5247 13.9847C12.697 14.0209 12.8765 13.9876 13.0243 13.892C13.172 13.7963 13.2759 13.6462 13.3134 13.4742C13.3509 13.3023 13.3188 13.1225 13.2243 12.9741C13.1297 12.8256 12.9803 12.7206 12.8086 12.6819C11.4015 12.3723 10.0822 11.7495 8.94889 10.8598C10.5787 9.16716 11.6229 6.99654 11.9282 4.66667H13.3333C13.5101 4.66667 13.6797 4.59643 13.8047 4.4714C13.9298 4.34638 14 4.17681 14 4C14 3.82319 13.9298 3.65362 13.8047 3.5286C13.6797 3.40357 13.5101 3.33333 13.3333 3.33333Z" fill="black"/>
</svg>
