<svg width="16" height="16" viewBox="0 0 16 16" fill="none" xmlns="http://www.w3.org/2000/svg">
<g clip-path="url(#clip0_1244_6781)">
<path d="M11 7.33317C12.2867 7.33317 13.3333 6.2865 13.3333 4.99984C13.3333 3.71317 12.2867 2.6665 11 2.6665C9.71333 2.6665 8.66666 3.71317 8.66666 4.99984V5.99984H7.33333V4.99984C7.33333 3.71317 6.28666 2.6665 5 2.6665C3.71333 2.6665 2.66666 3.71317 2.66666 4.99984C2.66666 6.2865 3.71333 7.33317 5 7.33317H6V8.6665H5C3.71333 8.6665 2.66666 9.71317 2.66666 10.9998C2.66666 12.2865 3.71333 13.3332 5 13.3332C6.28666 13.3332 7.33333 12.2865 7.33333 10.9998V9.99984H8.66666V10.9998C8.66666 12.2865 9.71333 13.3332 11 13.3332C12.2867 13.3332 13.3333 12.2865 13.3333 10.9998C13.3333 9.71317 12.2867 8.6665 11 8.6665H10V7.33317H11ZM10 4.99984C10 4.44784 10.4487 3.99984 11 3.99984C11.5513 3.99984 12 4.44784 12 4.99984C12 5.5505 11.5513 5.99984 11 5.99984H10V4.99984ZM6 10.9998C6 11.5505 5.55133 11.9998 5 11.9998C4.44866 11.9998 4 11.5505 4 10.9998C4 10.4478 4.44866 9.99984 5 9.99984H6V10.9998ZM6 5.99984H5C4.44866 5.99984 4 5.5505 4 4.99984C4 4.44784 4.44866 3.99984 5 3.99984C5.55133 3.99984 6 4.44784 6 4.99984V5.99984ZM8.66666 8.6665H7.33333V7.33317H8.66666V8.6665ZM11 9.99984C11.5513 9.99984 12 10.4478 12 10.9998C12 11.5505 11.5513 11.9998 11 11.9998C10.4487 11.9998 10 11.5505 10 10.9998V9.99984H11Z" fill="black"/>
<path d="M4.24016 4.89658C4.15394 4.89693 4.06853 4.88008 3.9889 4.84703C3.90927 4.81398 3.83703 4.76538 3.77641 4.70408L3.30391 4.23158C3.26613 4.19004 3.24577 4.13556 3.24706 4.07942C3.24834 4.02328 3.27116 3.96978 3.3108 3.93001C3.35043 3.89023 3.40385 3.86722 3.45998 3.86574C3.51611 3.86426 3.57067 3.88442 3.61235 3.92205L4.08594 4.39455C4.12693 4.4353 4.18237 4.45816 4.24016 4.45816C4.29795 4.45816 4.35339 4.4353 4.39438 4.39455C4.43512 4.35357 4.45799 4.29813 4.45799 4.24033C4.45799 4.18254 4.43512 4.1271 4.39438 4.08612L2.96375 2.6544C2.92301 2.61341 2.90014 2.55797 2.90014 2.50018C2.90014 2.44239 2.92301 2.38695 2.96375 2.34596L4.39438 0.914241C4.43512 0.873255 4.45799 0.817813 4.45799 0.760022C4.45799 0.702232 4.43512 0.646789 4.39438 0.605803C4.35339 0.565061 4.29795 0.542192 4.24016 0.542192C4.18237 0.542192 4.12693 0.565061 4.08594 0.605803L2.65422 2.03643C2.61324 2.07717 2.55779 2.10004 2.5 2.10004C2.44221 2.10004 2.38677 2.07717 2.34578 2.03643L0.914065 0.605803C0.87308 0.565061 0.817637 0.542192 0.759847 0.542192C0.702056 0.542192 0.646613 0.565061 0.605628 0.605803C0.564886 0.646789 0.542017 0.702232 0.542017 0.760022C0.542017 0.817813 0.564886 0.873255 0.605628 0.914241L2.03625 2.34596C2.077 2.38695 2.09986 2.44239 2.09986 2.50018C2.09986 2.55797 2.077 2.61341 2.03625 2.6544L0.605628 4.08612C0.564886 4.1271 0.542017 4.18254 0.542017 4.24033C0.542017 4.29813 0.564886 4.35357 0.605628 4.39455C0.646613 4.4353 0.702056 4.45816 0.759847 4.45816C0.817637 4.45816 0.87308 4.4353 0.914065 4.39455L2.34578 2.96393C2.38677 2.92319 2.44221 2.90032 2.5 2.90032C2.55779 2.90032 2.61324 2.92319 2.65422 2.96393L2.9211 3.2308C2.96214 3.27214 2.98509 3.32809 2.98488 3.38634C2.98468 3.4446 2.96134 3.50038 2.92 3.54143C2.87867 3.58247 2.82272 3.60542 2.76446 3.60521C2.70621 3.60501 2.65042 3.58167 2.60938 3.54033L2.5 3.43096L1.2236 4.70408C1.16352 4.76856 1.09107 4.82027 1.01057 4.85614C0.930068 4.89201 0.843169 4.9113 0.755054 4.91285C0.666939 4.91441 0.579413 4.8982 0.497699 4.86519C0.415984 4.83219 0.341754 4.78306 0.279438 4.72074C0.217122 4.65843 0.167995 4.5842 0.134989 4.50248C0.101983 4.42077 0.0857743 4.33324 0.087329 4.24513C0.0888837 4.15701 0.10817 4.07011 0.144038 3.98961C0.179906 3.90911 0.231621 3.83666 0.296097 3.77658L1.57141 2.50018L0.296097 1.22377C0.231621 1.16369 0.179906 1.09124 0.144038 1.01074C0.10817 0.930244 0.0888837 0.843344 0.087329 0.755229C0.0857743 0.667114 0.101983 0.579589 0.134989 0.497874C0.167995 0.41616 0.217122 0.34193 0.279438 0.279614C0.341754 0.217297 0.415984 0.168171 0.497699 0.135165C0.579413 0.102159 0.666939 0.0859498 0.755054 0.0875045C0.843169 0.0890592 0.930068 0.108346 1.01057 0.144214C1.09107 0.180082 1.16352 0.231796 1.2236 0.296272L2.5 1.57158L3.77641 0.296272C3.83649 0.231796 3.90894 0.180082 3.98944 0.144214C4.06994 0.108346 4.15684 0.0890592 4.24495 0.0875045C4.33307 0.0859498 4.42059 0.102159 4.50231 0.135165C4.58402 0.168171 4.65825 0.217297 4.72057 0.279614C4.78288 0.34193 4.83201 0.41616 4.86502 0.497874C4.89802 0.579589 4.91423 0.667114 4.91268 0.755229C4.91112 0.843344 4.89184 0.930244 4.85597 1.01074C4.8201 1.09124 4.76838 1.16369 4.70391 1.22377L3.4286 2.50018L4.70391 3.77658C4.79557 3.86836 4.85798 3.98524 4.88325 4.11247C4.90853 4.23969 4.89553 4.37155 4.84591 4.49139C4.79629 4.61124 4.71226 4.71369 4.60445 4.7858C4.49664 4.85792 4.36987 4.89647 4.24016 4.89658Z" fill="black"/>
</g>
<defs>
<clipPath id="clip0_1244_6781">
<rect width="16" height="16" fill="white"/>
</clipPath>
</defs>
</svg>
