<svg width="18" height="16" viewBox="0 0 18 16" fill="none" xmlns="http://www.w3.org/2000/svg">
<path d="M2.43345 12.5257C2.88571 12.5323 4.15458 12.5332 4.3185 12.4749C5.73848 13.7884 7.40621 14.5336 8.80714 15.8905C9.13677 16.2093 9.61075 15.7782 9.60363 15.2886C9.53101 10.3796 9.3662 5.46679 9.44629 0.555863C9.4527 0.141212 9.08124 -0.144125 8.81159 0.0767885C7.37809 1.24906 5.92768 2.37658 4.57961 3.71002C4.45484 3.50504 4.26351 3.37221 3.96289 3.36565C3.02828 3.34457 2.05452 3.56314 1.11956 3.63717C0.28213 3.70393 0.304912 5.45952 1.11956 5.33817C1.16548 5.33161 1.21193 5.32341 1.25785 5.31662C1.19378 6.11055 1.15925 6.90987 1.13166 7.7059C1.09072 8.89691 0.950112 10.1781 1.02433 11.3663C1.09072 12.4332 1.76636 12.5161 2.43345 12.5257ZM8.56099 1.52924C8.40756 5.67435 8.57078 9.81453 8.556 13.9613C7.361 12.9516 4.89927 10.9697 4.87916 10.9521C4.88664 10.2981 4.88966 9.64445 4.88824 8.99062C4.88521 7.76728 4.86368 6.54371 4.82719 5.32131C4.81811 5.0095 4.81509 4.67661 4.77753 4.37487C5.99905 3.34386 7.28838 2.44967 8.56099 1.52924ZM3.67419 4.95257C3.72011 5.52652 3.68256 6.15928 3.69609 6.69668C3.71549 7.46109 3.68167 10.7078 3.72937 11.0421C3.48268 10.9788 2.05381 11.0646 2.03779 11.0627C2.03067 10.899 1.85499 6.30733 1.77134 5.23627C2.0627 5.19082 3.54355 4.9685 3.67419 4.95257Z" fill="black"/>
<path d="M16.3358 4.3226C16.4543 4.0642 16.2174 3.75146 16.0211 3.90842C15.0171 4.70773 14.1565 5.96082 13.3011 7.04009C12.4452 5.96035 11.5846 4.7075 10.5809 3.90842C10.3844 3.75216 10.1477 4.0642 10.2663 4.3226C10.8675 5.63238 11.8286 6.73976 12.6673 7.82394C11.8478 8.83433 11.0341 9.85152 10.2433 10.9024C9.80581 11.4834 10.4843 12.3769 10.9253 11.8001C11.722 10.7598 12.511 9.71002 13.3011 8.66098C14.091 9.71025 14.88 10.7598 15.6765 11.8001C16.1177 12.3769 16.796 11.4839 16.3589 10.9024C15.5676 9.85152 14.7542 8.83433 13.9347 7.82394C14.7738 6.73976 15.7345 5.63238 16.3358 4.3226Z" fill="black"/>
<path d="M16.0435 7.34866C16.0435 7.1384 16.3106 7.1025 16.5423 7.1025C16.7607 7.1025 17.0591 7.22033 17.3086 7.36924L17.3575 6.78974C17.2327 6.70761 16.9433 6.61015 16.6492 6.58979L16.7205 6H16.2438L16.3152 6.58979C15.7005 6.65636 15.5 7.06658 15.5 7.41019C15.5 8.27681 16.903 8.09239 16.903 8.62549C16.903 8.82566 16.7384 8.89728 16.4487 8.89728C16.0568 8.89728 15.7627 8.73848 15.6114 8.57425L15.5356 9.22558C15.6782 9.32304 15.9676 9.41019 16.3152 9.43078L16.2438 10H16.7205L16.6492 9.42555C17.3708 9.35371 17.5 8.91263 17.5 8.62046C17.5 7.58978 16.0435 7.84604 16.0435 7.34866Z" fill="black"/>
</svg>
