<svg width="20" height="20" viewBox="0 0 20 20" fill="none" xmlns="http://www.w3.org/2000/svg">
<path d="M6.53544 2.1168C5.49406 1.85299 4.40494 1.96522 3.55101 2.443C2.68184 2.9293 2.07166 3.79051 2.04156 4.94442C1.99456 6.74577 2.41207 9.1633 4.06815 12.0023C5.70298 14.8048 7.50831 16.4846 9.0056 17.4834C9.95159 18.1144 10.9973 18.1311 11.8903 17.7196C12.7694 17.3145 13.4838 16.506 13.8548 15.503C14.0415 14.9981 13.9975 14.4368 13.7345 13.9672L12.781 12.2645C12.1747 11.1817 10.8657 10.7076 9.70661 11.151L9.04092 11.4056C8.71835 11.529 8.42164 11.4721 8.25304 11.3065C7.68784 10.7514 7.28407 9.9976 7.10089 9.18557C7.04329 8.93022 7.1603 8.62828 7.44299 8.41494L8.04412 7.9613C9.04934 7.20269 9.33337 5.81481 8.70699 4.72229L7.73513 3.02722C7.47512 2.57372 7.04218 2.24518 6.53544 2.1168ZM3.04122 4.97051C3.06139 4.19743 3.45254 3.64397 4.03928 3.31569C4.64126 2.97888 5.46263 2.87662 6.28987 3.08618C6.5339 3.148 6.74239 3.30622 6.8676 3.52461L7.83946 5.21969C8.21529 5.8752 8.04487 6.70792 7.44174 7.16309L6.84061 7.61673C6.32141 8.00856 5.96194 8.68096 6.1254 9.40562C6.34709 10.3884 6.83828 11.3187 7.55233 12.02C8.0737 12.5321 8.8175 12.5617 9.39819 12.3396L10.0639 12.085C10.7594 11.8189 11.5447 12.1034 11.9085 12.7531L12.862 14.4558C12.982 14.6699 13.002 14.9259 12.9169 15.1561C12.6267 15.9407 12.0825 16.53 11.4718 16.8114C10.8752 17.0863 10.2001 17.0781 9.56054 16.6515C8.18976 15.7371 6.49007 14.1695 4.93193 11.4984C3.36852 8.81828 2.99912 6.58401 3.04122 4.97051Z" fill="#212121" stroke="black" stroke-width="0.75"/>
<path d="M12.25 8.625C12.25 8.97019 11.9701 9.25 11.625 9.25C11.2797 9.25 11 8.97019 11 8.625C11 8.27983 11.2797 8 11.625 8C11.9701 8 12.25 8.27983 12.25 8.625Z" fill="#212121"/>
<path d="M13.25 7.62549C13.25 7.97068 12.9701 8.25049 12.625 8.25049C12.2797 8.25049 12 7.97068 12 7.62549C12 7.28031 12.2797 7.00049 12.625 7.00049C12.9701 7.00049 13.25 7.28031 13.25 7.62549Z" fill="#212121"/>
<path d="M14.25 6.62549C14.25 6.97068 13.9701 7.25049 13.625 7.25049C13.2797 7.25049 13 6.97068 13 6.62549C13 6.28031 13.2797 6.00049 13.625 6.00049C13.9701 6.00049 14.25 6.28031 14.25 6.62549Z" fill="#212121"/>
<path d="M17.5 8.00049C17.2238 8.00049 17 7.77664 17 7.50049V3.7076L14.8535 5.85405C14.6582 6.04931 14.3417 6.04931 14.1464 5.85405C13.9511 5.65878 13.9511 5.3422 14.1464 5.14694L16.2928 3.00049H12.5C12.2238 3.00049 12 2.77664 12 2.50049C12 2.22435 12.2238 2.00049 12.5 2.00049H17.5C17.7761 2.00049 18 2.22435 18 2.50049V7.50049C18 7.77664 17.7761 8.00049 17.5 8.00049Z" fill="#212121" stroke="black" stroke-width="0.25"/>
</svg>
